<svg width="11" height="7" viewBox="0 0 11 7" fill="none" xmlns="http://www.w3.org/2000/svg">
<path d="M5.07078 0.175461L0.17573 5.0706C0.0624223 5.18382 6.94605e-08 5.33496 5.95321e-08 5.49611C4.96036e-08 5.65726 0.0624223 5.8084 0.17573 5.92162L0.536134 6.28211C0.770977 6.51669 1.15267 6.51669 1.38715 6.28211L5.49772 2.17154L9.61285 6.28667C9.72616 6.39989 9.8772 6.4624 10.0383 6.4624C10.1995 6.4624 10.3506 6.39989 10.464 6.28667L10.8243 5.92618C10.9376 5.81287 11 5.66182 11 5.50067C11 5.33952 10.9376 5.18838 10.8243 5.07516L5.92475 0.175461C5.81108 0.0619745 5.65932 -0.000358092 5.49799 -4.64147e-07C5.33603 -0.000358092 5.18436 0.0619745 5.07078 0.175461Z" fill="#232780"/>
</svg>
