<svg width="11" height="7" viewBox="0 0 11 7" fill="none" xmlns="http://www.w3.org/2000/svg">
<path d="M5.92922 6.28694L10.8243 1.3918C10.9376 1.27858 11 1.12745 11 0.966293C11 0.80514 10.9376 0.654003 10.8243 0.540784L10.4639 0.180291C10.229 -0.054284 9.84733 -0.054284 9.61285 0.180291L5.50228 4.29086L1.38715 0.17573C1.27384 0.0625116 1.1228 -8.35668e-08 0.961733 -8.49295e-08C0.80049 -8.62937e-08 0.649443 0.0625116 0.536045 0.17573L0.175731 0.536223C0.0624226 0.649531 7.72876e-07 0.800579 7.36483e-07 0.961732C7.00089e-07 1.12289 0.0624225 1.27402 0.17573 1.38724L5.07525 6.28694C5.18892 6.40043 5.34068 6.46276 5.50201 6.4624C5.66397 6.46276 5.81564 6.40043 5.92922 6.28694Z" fill="#9293A4"/>
</svg>
