<svg width="226" height="321" viewBox="0 0 226 321" fill="none" xmlns="http://www.w3.org/2000/svg">
<path d="M0.80604 330.982C0.80604 316.512 0.80604 303.88 0.80604 289.704C8.46174 289.26 15.9246 288.828 24.3921 288.338C24.658 283.278 25.0911 278.847 25.0936 274.417C25.1357 200.406 24.916 126.395 25.3172 52.3863C25.3888 39.1893 21.7139 31.4525 7.54257 30.2733C4.8931 30.0528 0.712137 25.624 0.487439 22.8708C-0.354847 12.5515 0.150141 2.12161 0.150141 -9.99116C6.56031 -9.99116 11.4244 -9.9912 16.2885 -9.9912C69.1622 -9.99124 122.036 -10.0144 174.91 -9.98538C239.402 -9.95 275.099 48.871 245.418 106.128C244.414 108.065 243.622 110.111 242.272 113.133C246.822 115.394 250.769 117.352 254.713 119.314C298.193 140.949 323.199 188.922 315.671 236.258C307.918 285.015 270.298 321.99 221.015 328.923C212.042 330.185 202.913 330.871 193.854 330.894C130.089 331.059 66.3235 330.982 0.80604 330.982ZM136.423 288.967C160.639 288.967 183.359 289.087 206.077 288.94C242.207 288.705 269.141 264.226 275.395 226.161C280.249 196.614 258.776 163.833 227.87 152.785C215.566 148.386 204.898 148.025 196.686 160.122C193.641 164.608 190.182 168.813 186.375 173.857C174.642 162.738 165.234 153.822 155.245 144.355C172.899 125.492 189.506 107.999 205.813 90.2282C215.188 80.0109 218.13 67.9097 213.091 54.7746C207.951 41.3736 198.105 32.8996 183.597 31.5768C172.745 30.5874 161.736 31.3923 150.863 30.5428C139.149 29.6275 135.21 33.7425 135.297 46.0006C135.838 122.264 135.56 198.534 135.602 274.802C135.605 278.822 136.055 282.843 136.423 288.967ZM95.0103 288.156C95.0103 265.628 95.0109 243.859 95.0102 222.09C95.0082 163.74 94.6406 105.385 95.2735 47.042C95.4219 33.3666 90.3677 28.8404 77.7419 30.7369C74.6591 31.2 71.5956 31.7916 67.9991 32.415C67.9991 117.839 67.9991 202.773 67.9991 288.156C76.931 288.156 84.8902 288.156 95.0103 288.156Z" fill="#32368D"/>
</svg>
