<svg width="798" height="847" viewBox="0 0 798 847" fill="none" xmlns="http://www.w3.org/2000/svg">
<path d="M2.02908 846.954C2.02908 810.589 2.02908 778.841 2.02908 743.214C21.3011 742.1 40.0878 741.014 61.4035 739.781C62.0728 727.065 63.1631 715.93 63.1694 704.795C63.2753 518.792 62.7223 332.786 63.7323 146.789C63.9124 113.622 54.6616 94.1782 18.9873 91.2147C12.3176 90.6607 1.7927 79.53 1.22705 72.6108C-0.893275 46.6762 0.377956 20.464 0.377956 -9.97778C16.5146 -9.97778 28.7592 -9.97788 41.0037 -9.97788C174.106 -9.97799 307.207 -10.0362 440.309 -9.96327C602.658 -9.87433 692.521 137.954 617.803 281.854C615.276 286.72 613.281 291.863 609.884 299.457C621.339 305.139 631.273 310.06 641.202 314.993C750.655 369.364 813.604 489.93 794.655 608.896C775.136 731.431 680.434 824.355 556.372 841.78C533.784 844.953 510.803 846.675 487.998 846.734C327.479 847.149 166.959 846.954 2.02908 846.954ZM343.425 741.363C404.385 741.363 461.579 741.664 518.768 741.294C609.719 740.706 677.522 679.183 693.265 583.52C705.484 509.263 651.43 426.878 573.63 399.11C542.655 388.055 515.8 387.148 495.128 417.55C487.461 428.825 478.755 439.391 469.171 452.069C439.636 424.125 415.952 401.716 390.805 377.923C435.246 330.518 477.053 286.555 518.102 241.893C541.703 216.215 549.11 185.802 536.425 152.791C523.485 119.112 498.699 97.815 462.177 94.4908C434.858 92.0042 407.145 94.0271 379.775 91.8921C350.287 89.5918 340.371 99.9334 340.59 130.741C341.953 322.407 341.251 514.087 341.359 705.763C341.364 715.867 342.498 725.971 343.425 741.363ZM239.174 739.326C239.174 682.708 239.176 627.998 239.174 573.288C239.169 426.642 238.243 279.986 239.837 133.358C240.21 98.9888 227.487 87.6136 195.704 92.3798C187.943 93.5436 180.231 95.0306 171.178 96.5972C171.178 311.284 171.178 524.74 171.178 739.326C193.662 739.326 213.698 739.326 239.174 739.326Z" fill="#32368D"/>
</svg>
