<svg width="1070" height="586" viewBox="0 0 1070 586" fill="none" xmlns="http://www.w3.org/2000/svg">
<path d="M536.328 319.76L696.188 228.008L607.903 340.155L536.328 319.76Z" fill="white"/>
<path d="M536.328 319.76L442.119 314.584L532.836 328.608L607.903 340.155L536.328 319.76Z" fill="#AFB1E3"/>
<path d="M536.328 319.76L353.747 183.902L442.119 314.584L536.328 319.76Z" fill="#AFB2E3"/>
<path d="M547.469 247.474L696.188 228.008L536.328 319.76L547.469 247.474Z" fill="#AFB2E3"/>
<path d="M353.747 183.902L528.592 249.155L536.328 319.76L353.747 183.902Z" fill="#AFB2E3"/>
<path d="M482.792 279.945L541.855 240.218L577.09 280.874L536.328 319.76L482.792 279.945Z" fill="white"/>
<path d="M577.089 280.875L586.683 290.872L536.329 319.76L577.089 280.875Z" fill="#AFB1E3"/>
<path d="M513.428 243.492L468.202 269.062L353.748 183.902L513.428 243.492Z" fill="white"/>
<path d="M528.99 81.9754L531.024 87.5494L530.979 91.3542L540.175 89.0538L539.291 85.6914L537.876 76.7549L528.99 81.9754Z" fill="#F3DCB3"/>
<path d="M539.158 69.6322L537.478 79.7191L533.72 83.7887L526.603 86.089L524.79 86.1778L523.906 85.2931L524.039 84.2754L522.934 79.1436L521.253 78.6126L522.182 74.543L522.314 67.2433L526.558 64.2793L537.169 65.0314L539.158 69.6322Z" fill="#F3DCB3"/>
<path d="M591.325 149.307L571.829 155.545L557.196 113.296L567.054 125.595L585.135 144.971L591.325 149.307Z" fill="#484B9B"/>
<path d="M538.893 235.264L536.815 237.874C536.815 237.874 530.847 240.174 531.244 242.298C531.244 243.271 536.196 242.519 538.096 242.298C539.504 241.705 540.851 240.979 542.12 240.13L542.385 240.838L546.143 239.909L543.844 234.468L538.893 235.264Z" fill="#00376A"/>
<path d="M608.478 271.186L607.152 274.238C607.152 274.238 601.935 277.999 602.73 279.901C603.172 280.83 607.594 278.883 609.273 278.043C610.5 277.115 611.625 276.063 612.633 274.902L613.075 275.522L616.524 273.707L612.899 268.974L608.478 271.186Z" fill="#00376A"/>
<path d="M568.424 143.069L550.873 148.511L542.164 149.793L527.487 96.8835L531.024 87.5491L532.084 88.5669L534.118 88.0802L539.114 84.6733L539.645 85.16L547.071 86.7088L568.424 143.069Z" fill="white"/>
<path d="M553.968 163.198L573.73 201.554L608.345 271.186L613.296 268.797L583.544 198.546L568.424 143.069L556.399 147.493L542.164 149.838C542.164 149.838 508.123 165.322 506.797 167.533C505.471 169.746 538.716 235.441 538.716 235.441L543.844 234.468L521.209 172.09L553.968 163.198Z" fill="#484B9B"/>
<path d="M533.676 90.9555L534.251 87.9917L531.599 88.0804L532.041 91.2654L537.655 112.102L549.813 130.196L561.705 138.911L554.764 127.321L538.318 110.2L533.676 90.9555Z" fill="#B0C2CC"/>
<path d="M533.764 90.9118L534.251 87.9917L531.598 88.0804L532.217 91.2654L538.583 112.5L552.244 130.063L562.058 137.451L557.019 127.851L542.253 110.598L533.764 90.9118Z" fill="#F77B8C"/>
<path d="M542.164 149.793L550.874 148.511L537.655 112.102L532.085 90.6462L531.599 88.0804L531.024 87.5493L529.697 89.9384L527.885 97.9896L542.164 149.793Z" fill="#B0C2CC"/>
<path d="M567.054 125.595L563.916 111.792L559.716 87.4168L539.645 85.1602L548.574 102.591L577.355 142.273L585.755 145.547L591.325 149.307L567.054 125.595Z" fill="#484B9B"/>
<path d="M531.023 87.5493L522.182 95.7336L537.875 133.514C537.875 133.514 534.428 119.18 531.023 106.97C528.805 100.687 528.805 93.8326 531.023 87.5493Z" fill="#484B9B"/>
<path d="M559.715 87.417L586.55 106.174L612.545 128.205L610.202 131.125L586.285 114.358L561.572 106.882L559.715 87.417Z" fill="#484B9B"/>
<path d="M531.421 70.1193L532.483 72.0655L532.659 77.3304L533.897 77.3748L535.444 72.7734L537.346 72.4198L538.539 73.4812L538.053 76.2246L540.529 70.9598L539.246 68.4824L531.421 70.1193Z" fill="#484B9B"/>
<path d="M630.804 164.481L650.918 137.23L630.052 121.79L623.598 130.505L609.937 149.042L630.804 164.481Z" fill="#6467B8"/>
<path d="M620.503 131.479L616.17 137.318L616.656 139.929L617.85 138.335L616.744 137.628L620.989 131.877L622.006 132.673L623.332 130.903L620.503 131.479Z" fill="#00376A"/>
<path d="M609.937 149.042L629.831 122.145L636.064 132.364L634.384 134.62L635.18 135.195C635.515 135.457 635.734 135.839 635.791 136.261C635.849 136.681 635.741 137.109 635.489 137.451C635.332 137.664 635.125 137.836 634.886 137.952C634.647 138.068 634.384 138.124 634.119 138.114C633.805 138.079 633.503 137.973 633.235 137.805L632.483 137.23L624.172 148.467L624.924 149.042C625.098 149.165 625.245 149.321 625.357 149.502C625.469 149.683 625.544 149.884 625.577 150.095C625.61 150.306 625.6 150.52 625.549 150.727C625.498 150.933 625.405 151.128 625.277 151.298C625.115 151.503 624.906 151.667 624.668 151.775C624.429 151.883 624.168 151.931 623.907 151.917C623.588 151.902 623.281 151.795 623.022 151.608L622.271 151.032L620.68 153.156L609.937 149.042Z" fill="#484B9B"/>
<path d="M630.052 121.79L635.003 131.169L620.061 151.387L609.937 149.042L630.052 121.79Z" fill="#6467B8"/>
<path d="M634.649 135.991C634.806 135.774 634.872 135.503 634.83 135.238C634.789 134.972 634.644 134.734 634.428 134.576L631.909 132.718L630.715 134.355L633.235 136.213C633.455 136.359 633.723 136.418 633.985 136.377C634.247 136.336 634.484 136.198 634.649 135.991Z" fill="white"/>
<path d="M624.437 149.793C624.611 149.599 624.708 149.347 624.708 149.085C624.708 148.825 624.611 148.573 624.437 148.378L621.918 146.52L620.724 148.156L623.244 150.014C623.438 150.119 623.662 150.153 623.879 150.113C624.096 150.073 624.293 149.96 624.437 149.793Z" fill="white"/>
<path d="M650.918 137.23L649.681 136.345L630.627 161.738L616.657 151.608L609.937 149.042L630.804 164.481L650.918 137.23Z" fill="#484B9B"/>
<path d="M528.017 66.4474L522.314 67.2436L522.27 70.0307L520.678 66.0492L521.961 63.5276L528.548 62.0234L539.069 64.2796L541.324 70.6498L539.688 72.7734L540.528 70.9597L539.246 68.4823L530.05 68.0399L528.017 66.4474Z" fill="#484B9B"/>
<path d="M610.158 131.036L610.954 131.611L611.838 132.939L614.181 135.637L617.629 136.168L615.949 135.062L615.065 134.619L614.357 133.956C614.357 133.956 618.115 136.566 618.293 136.522C618.529 136.317 618.685 136.035 618.735 135.726C619.101 135.491 619.37 135.129 619.486 134.708C619.486 134.708 620.061 134 619.972 133.735C619.883 133.469 620.768 133.027 620.635 132.85C620.503 132.673 614.712 129.001 614.712 129.001L613.297 128.647L612.545 128.205L610.158 131.036Z" fill="#F3DCB3"/>
<path d="M568.424 143.069L550.873 148.511L578.017 200.315L610.423 270.169L613.296 268.797L583.544 198.546L568.424 143.069Z" fill="#6467B8"/>
<path d="M521.209 171.869L514.976 168.64L534.649 163.243L529.344 156.651L511.571 167.711L541.59 234.689L543.844 234.247L521.209 171.869Z" fill="#6467B8"/>
<path d="M610.158 131.036L610.644 130.505L611.219 131.213L614.181 135.195L616.922 135.681L617.629 136.168L614.225 135.637L611.838 132.939L610.954 131.611L610.158 131.036Z" fill="#DDB9A2"/>
<path d="M618.292 136.522L613.518 133.116L614.357 133.956C614.357 133.956 617.938 136.566 618.292 136.522Z" fill="#DDB9A2"/>
<path d="M528.547 62.0234L539.069 64.2796L541.324 70.6498L539.688 72.7734L540.528 70.9597L539.246 68.4823L530.051 68.0399L528.547 62.0234Z" fill="#6467B8"/>
<path d="M577.355 142.273L556.311 113.208L548.575 102.591L539.645 85.1602L560.113 87.6816L586.55 106.174L612.545 128.205L610.909 130.151L584.207 109.226L560.334 98.8304L560.069 108.916L567.054 125.595L591.325 149.307L585.755 145.547L577.355 142.273Z" fill="#6467B8"/>
<path d="M533.809 83.7891L531.599 88.0805L531.024 87.5495L530.007 84.8512L533.809 83.7891Z" fill="#DDB9A2"/>
<path d="M522.668 72.7289L522.756 67.3763L528.018 66.4473L522.314 67.2436L522.182 74.5433L522.713 73.7467L524.923 74.3221L527.576 74.0122L526.515 72.4197L523.818 71.7119L522.668 72.7289Z" fill="#DDB9A2"/>
<path d="M522.933 79.1439L521.254 78.6572L523.641 78.834L522.933 79.1439Z" fill="#DDB9A2"/>
<path d="M494.182 73.6831L515.354 73.2246L515.406 75.6574L494.235 76.1159L494.182 73.6831Z" fill="#484B9B"/>
<path d="M515.55 74.543C515.55 75.6931 515.55 76.6665 515.064 76.6665C514.578 76.6665 514.533 75.7375 514.489 74.543C514.445 73.3484 514.489 72.4194 514.975 72.4194C515.462 72.4194 515.506 73.3484 515.55 74.543Z" fill="#204B86"/>
<path d="M514.976 72.4194H516.257C516.766 73.7739 516.766 75.267 516.257 76.6222H515.152C515.397 75.2248 515.337 73.7908 514.976 72.4194Z" fill="#6467B8"/>
<path d="M501.271 75.6487L515.064 75.2064C515.109 74.9725 515.109 74.7324 515.064 74.4985L501.315 74.7641L501.271 75.6487Z" fill="#6467B8"/>
<path d="M479.962 72.6406L501.138 72.1982C501.381 73.9738 501.381 75.7748 501.138 77.5511L480.006 77.9934L479.962 72.6406Z" fill="#484B9B"/>
<path d="M501.271 77.2414C501.271 76.6667 501.271 75.9588 501.271 75.251L479.918 75.5602V77.6837L501.271 77.2414Z" fill="#6467B8"/>
<path d="M453.967 71.6675L479.918 71.0928C480.626 73.9988 480.626 77.0338 479.918 79.9405L453.967 80.5153V71.6675Z" fill="#484B9B"/>
<path d="M480.227 79.6307C480.368 78.7517 480.457 77.8656 480.493 76.9761L453.967 77.3747V80.1617L480.227 79.6307Z" fill="#6467B8"/>
<path d="M450.696 70.0747H453.923C455.436 73.9029 455.592 78.1345 454.365 82.0632H451.138L450.696 70.0747Z" fill="#6467B8"/>
<path d="M454.365 81.7541C454.734 80.7413 454.972 79.6862 455.072 78.6128H451.005V81.8865L454.365 81.7541Z" fill="#484B9B"/>
<path d="M452.066 76.0912C452.066 79.4093 451.579 82.1076 450.873 82.1076C450.165 82.1076 449.502 79.4537 449.458 76.1356C449.413 72.8175 449.9 70.0747 450.652 70.0747C451.403 70.0747 451.978 72.7288 452.066 76.0912Z" fill="#484B9B"/>
<path d="M450.873 80.9575C450.398 79.3805 450.175 77.738 450.209 76.0913C450.094 74.4558 450.243 72.8127 450.651 71.2251C451.125 72.8021 451.349 74.4446 451.315 76.0913C451.384 77.726 451.235 79.3622 450.873 80.9575Z" fill="white"/>
<path d="M521.961 95.7334L508.698 109.713L491.014 81.7983L486.594 82.1075C486.594 82.1075 503.305 120.331 506.797 119.445C513.814 116.044 520.594 112.172 527.089 107.855L521.961 95.7334Z" fill="#484B9B"/>
<path d="M486.505 82.1078L483.632 77.9494H491.412L492.739 77.0204C492.739 77.0204 492.031 75.7815 492.252 75.2068C492.421 74.8497 492.645 74.5208 492.915 74.2334L493.933 76.976L492.429 79.0552L490.749 81.931L486.505 82.1078Z" fill="#F3DCB3"/>
<path d="M486.505 82.1075L487.3 82.0195L484.781 77.9048L483.631 77.9492L486.505 82.1075Z" fill="#DDB9A2"/>
<path d="M516.523 101.396L518.335 108.253C518.335 108.253 509.007 117.101 507.062 116.172C505.117 115.243 488.14 82.0195 488.14 82.0195L490.749 81.7983L508.432 109.713L516.523 101.396Z" fill="#6467B8"/>
<path d="M684.827 373.511L752.511 356.921L816.88 373.511L871.487 455.7L684.827 373.511Z" fill="#4448A5"/>
<path d="M646.542 356.921L681.114 352.939L720.592 364.751L684.827 373.511L646.542 356.921Z" fill="#333681"/>
<path d="M342.076 340.155L281.283 326.042L250.605 340.155L123.895 452.882L6.10352e-05 586H281.283L342.076 340.155Z" fill="url(#paint0_linear)"/>
<path d="M383.63 301.977L427.928 490.347L607.903 340.155L383.63 301.977Z" fill="url(#paint1_linear)"/>
<path d="M607.903 340.155L306.217 586H866.559L607.903 340.155Z" fill="#4448A5"/>
<path d="M607.903 340.155L787.013 586H962.296L889.085 459.926L607.903 340.155Z" fill="#4448A5"/>
<path d="M752.511 356.921L892.605 586H1070L962.296 430.344L816.88 373.511L752.511 356.921Z" fill="#4448A5"/>
<path d="M720.592 364.751L681.113 352.939L689.999 372.227L720.592 364.751Z" fill="#4E52AE"/>
<path d="M281.283 326.042L298.572 380.103L342.076 340.155L281.283 326.042Z" fill="#9093E0"/>
<path d="M250.605 388.021L383.63 301.977L456.158 586H229.487L250.605 388.021Z" fill="url(#paint2_linear)"/>
<path d="M688.408 11.9445L703.041 6.41467L719.31 21.5444L702.776 10.9271L687.921 12.9621L674.438 3.49489L659.053 5.0875L675.322 0L688.408 11.9445Z" fill="white"/>
<path d="M351.27 11.2369L357.105 0.265625L375.098 0.354103L359.449 3.14117L351.713 12.5198L338.493 14.2895L330.229 23.7124L337.12 11.7235L351.27 11.2369Z" fill="white"/>
<defs>
<linearGradient id="paint0_linear" x1="-595.469" y1="8052.08" x2="868.065" y2="9059.94" gradientUnits="userSpaceOnUse">
<stop stop-color="#4448A5"/>
<stop offset="1" stop-color="#232780"/>
</linearGradient>
<linearGradient id="paint1_linear" x1="228.895" y1="500.433" x2="523.744" y2="326.881" gradientUnits="userSpaceOnUse">
<stop stop-color="#4448A5"/>
<stop offset="0.52" stop-color="#5055BD"/>
<stop offset="1" stop-color="#AEB1F1"/>
</linearGradient>
<linearGradient id="paint2_linear" x1="-5632.94" y1="16351.1" x2="3508.74" y2="24924.8" gradientUnits="userSpaceOnUse">
<stop stop-color="#4448A5"/>
<stop offset="1" stop-color="#2B5185"/>
</linearGradient>
</defs>
</svg>
