<svg fill="none" version="1.1" viewBox="0 0 1070 650" xmlns="http://www.w3.org/2000/svg">
 <path d="m536.33 385.76 159.86-91.752-88.285 112.15z" fill="#fff"/>
 <path d="m536.33 385.76-94.209-5.176 90.717 14.024 75.067 11.547z" fill="#afb1e3"/>
 <g fill="#afb2e3">
  <path d="m536.33 385.76-182.58-135.86 88.372 130.68z"/>
  <path d="m547.47 313.47 148.72-19.466-159.86 91.752z"/>
  <path d="m353.75 249.9 174.84 65.253 7.736 70.605z"/>
 </g>
 <path d="m482.79 345.94 59.063-39.727 35.235 40.656-40.762 38.886z" fill="#fff"/>
 <path d="m577.09 346.88 9.594 9.997-50.354 28.888z" fill="#afb1e3"/>
 <path d="m513.43 309.49-45.226 25.57-114.45-85.16z" fill="#fff"/>
 <path d="m528.99 147.98 2.034 5.574-0.045 3.8048 9.196-2.3004-0.884-3.3624-1.415-8.9365z" fill="#f3dcb3"/>
 <path d="m539.16 135.63-1.68 10.087-3.758 4.0696-7.117 2.3003-1.813 0.0887-0.884-0.8846 0.133-1.0177-1.105-5.1318-1.681-0.531 0.929-4.0696 0.132-7.2997 4.244-2.964 10.611 0.7521z" fill="#f3dcb3"/>
 <path d="m591.32 215.31-19.496 6.238-14.633-42.249 9.858 12.299 18.081 19.376z" fill="#484b9b"/>
 <path d="m538.89 301.26-2.078 2.61s-5.968 2.3-5.571 4.424c0 0.973 4.952 0.221 6.852 0 1.408-0.593 2.755-1.319 4.024-2.168l0.265 0.708 3.758-0.929-2.299-5.441z" fill="#00376a"/>
 <path d="m608.48 337.19-1.326 3.052s-5.217 3.761-4.422 5.663c0.442 0.929 4.864-1.018 6.543-1.858 1.227-0.928 2.352-1.98 3.36-3.141l0.442 0.62 3.449-1.815-3.625-4.733z" fill="#00376a"/>
 <path d="m568.42 209.07-17.551 5.442-8.709 1.282-14.677-52.91 3.537-9.3344 1.06 1.0178 2.034-0.4867 4.996-3.4069 0.531 0.4867 7.426 1.5488z" fill="#fff"/>
 <path d="m553.97 229.2 19.762 38.356 34.615 69.632 4.951-2.389-29.752-70.251-15.12-55.477-12.025 4.424-14.235 2.345s-34.041 15.484-35.367 17.695c-1.326 2.213 31.919 67.908 31.919 67.908l5.128-0.973-22.635-62.378z" fill="#484b9b"/>
 <path d="m533.68 156.96 0.575-2.9638-2.652 0.0887 0.442 3.185 5.614 20.837 12.158 18.094 11.892 8.715-6.941-11.59-16.446-17.121z" fill="#b0c2cc"/>
 <path d="m533.76 156.91 0.487-2.9201-2.653 0.0887 0.619 3.185 6.366 21.235 13.661 17.563 9.814 7.388-5.039-9.6-14.766-17.253z" fill="#f77b8c"/>
 <path d="m542.16 215.79 8.71-1.282-13.219-36.409-5.57-21.456-0.486-2.5658-0.575-0.5311-1.327 2.3891-1.812 8.0512z" fill="#b0c2cc"/>
 <g fill="#484b9b">
  <path d="m567.05 191.6-3.138-13.803-4.2-24.375-20.071-2.2566 8.929 17.431 28.781 39.682 8.4 3.274 5.57 3.76z"/>
  <path d="m531.02 153.55-8.841 8.1843 15.693 37.78s-3.447-14.334-6.852-26.544c-2.218-6.283-2.218-13.137 0-19.421z"/>
  <path d="m559.72 153.42 26.835 18.757 25.995 22.031-2.343 2.92-23.917-16.767-24.713-7.476z"/>
  <path d="m531.42 136.12 1.062 1.9462 0.176 5.2649 1.238 0.0444 1.547-4.6014 1.902-0.3536 1.193 1.0614-0.486 2.7434 2.476-5.2648-1.283-2.4774z"/>
 </g>
 <path d="m630.8 230.48 20.114-27.251-20.866-15.44-6.454 8.715-13.661 18.537z" fill="#6467b8"/>
 <path d="m620.5 197.48-4.333 5.839 0.486 2.611 1.194-1.594-1.106-0.707 4.245-5.751 1.017 0.796 1.326-1.77z" fill="#00376a"/>
 <path d="m609.94 215.04 19.894-26.897 6.233 10.219-1.68 2.256 0.796 0.575c0.335 0.262 0.554 0.644 0.611 1.066 0.058 0.42-0.05 0.848-0.302 1.19-0.157 0.213-0.364 0.385-0.603 0.501s-0.502 0.172-0.767 0.162c-0.314-0.035-0.616-0.141-0.884-0.309l-0.752-0.575-8.311 11.237 0.752 0.575c0.174 0.123 0.321 0.279 0.433 0.46s0.187 0.382 0.22 0.593 0.023 0.425-0.028 0.632c-0.051 0.206-0.144 0.401-0.272 0.571-0.162 0.205-0.371 0.369-0.609 0.477-0.239 0.108-0.5 0.156-0.761 0.142-0.319-0.015-0.626-0.122-0.885-0.309l-0.751-0.576-1.591 2.124z" fill="#484b9b"/>
 <path d="m630.05 187.79 4.951 9.379-14.942 20.218-10.124-2.345z" fill="#6467b8"/>
 <path d="m634.65 201.99c0.157-0.217 0.223-0.488 0.181-0.753-0.041-0.266-0.186-0.504-0.402-0.662l-2.519-1.858-1.194 1.637 2.52 1.858c0.22 0.146 0.488 0.205 0.75 0.164s0.499-0.179 0.664-0.386z" fill="#fff"/>
 <path d="m624.44 215.79c0.174-0.194 0.271-0.446 0.271-0.708 0-0.26-0.097-0.512-0.271-0.707l-2.519-1.858-1.194 1.636 2.52 1.858c0.194 0.105 0.418 0.139 0.635 0.099s0.414-0.153 0.558-0.32z" fill="#fff"/>
 <path d="m650.92 203.23-1.237-0.885-19.054 25.393-13.97-10.13-6.72-2.566 20.867 15.439z" fill="#484b9b"/>
 <path d="m528.02 132.45-5.703 0.7962-0.044 2.7871-1.592-3.9815 1.283-2.5216 6.587-1.5042 10.521 2.2562 2.255 6.3702-1.636 2.1236 0.84-1.8137-1.282-2.4774-9.196-0.4424z" fill="#484b9b"/>
 <path d="m610.16 197.04 0.796 0.575 0.884 1.328 2.343 2.698 3.448 0.531-1.68-1.106-0.884-0.443-0.708-0.663s3.758 2.61 3.936 2.566c0.236-0.205 0.392-0.487 0.442-0.796 0.366-0.235 0.635-0.597 0.751-1.018 0 0 0.575-0.708 0.486-0.973-0.089-0.266 0.796-0.708 0.663-0.885-0.132-0.177-5.923-3.849-5.923-3.849l-1.415-0.354-0.752-0.442z" fill="#f3dcb3"/>
 <path d="m568.42 209.07-17.551 5.442 27.144 51.804 32.406 69.854 2.873-1.372-29.752-70.251z" fill="#6467b8"/>
 <path d="m521.21 237.87-6.233-3.229 19.673-5.397-5.305-6.592-17.773 11.06 30.019 66.978 2.254-0.442z" fill="#6467b8"/>
 <path d="m610.16 197.04 0.486-0.531 0.575 0.708 2.962 3.982 2.741 0.486 0.707 0.487-3.404-0.531-2.387-2.698-0.884-1.328z" fill="#ddb9a2"/>
 <path d="m618.29 202.52-4.774-3.406 0.839 0.84s3.581 2.61 3.935 2.566z" fill="#ddb9a2"/>
 <path d="m528.55 128.02 10.522 2.2562 2.255 6.3702-1.636 2.1236 0.84-1.8137-1.282-2.4774-9.195-0.4424z" fill="#6467b8"/>
 <path d="m577.36 208.27-21.044-29.065-7.736-10.617-8.93-17.431 20.468 2.5214 26.437 18.492 25.995 22.031-1.636 1.946-26.702-20.925-23.873-10.396-0.265 10.086 6.985 16.679 24.271 23.712-5.57-3.76z" fill="#6467b8"/>
 <g fill="#ddb9a2">
  <path d="m533.81 149.79-2.21 4.2914-0.575-0.531-1.017-2.6983z"/>
  <path d="m522.67 138.73 0.088-5.3526 5.262-0.929-5.704 0.7963-0.132 7.2997 0.531-0.7966 2.21 0.5754 2.653-0.3099-1.061-1.5925-2.697-0.7078z"/>
  <path d="m522.93 145.14-1.679-0.4867 2.387 0.1768z"/>
 </g>
 <path d="m494.18 139.68 21.172-0.4585 0.052 2.4328-21.171 0.4585z" fill="#484b9b"/>
 <path d="m515.55 140.54c0 1.1501 0 2.1235-0.486 2.1235s-0.531-0.929-0.575-2.1235c-0.044-1.1946 0-2.1236 0.486-2.1236 0.487 0 0.531 0.929 0.575 2.1236z" fill="#204b86"/>
 <path d="m514.98 138.42h1.281c0.509 1.3545 0.509 2.8476 0 4.2028h-1.105c0.245-1.3974 0.185-2.8314-0.176-4.2028z" fill="#6467b8"/>
 <path d="m501.27 141.65 13.793-0.4423c0.045-0.2339 0.045-0.474 0-0.7079l-13.749 0.2656z" fill="#6467b8"/>
 <path d="m479.96 138.64 21.176-0.4424c0.243 1.7756 0.243 3.5766 0 5.3529l-21.132 0.4423z" fill="#484b9b"/>
 <path d="m501.27 143.24v-1.9904l-21.353 0.3092v2.1235z" fill="#6467b8"/>
 <path d="m453.97 137.67 25.951-0.5747c0.708 2.906 0.708 5.941 0 8.8477l-25.951 0.5748z" fill="#484b9b"/>
 <path d="m480.23 145.63c0.141-0.879 0.23-1.7651 0.266-2.6546l-26.526 0.3986v2.787z" fill="#6467b8"/>
 <path d="m450.7 136.07h3.227c1.513 3.8282 1.669 8.0598 0.442 11.988h-3.227z" fill="#6467b8"/>
 <path d="m454.36 147.75c0.369-1.0128 0.607-2.0679 0.707-3.1413h-4.067v3.2737z" fill="#484b9b"/>
 <path d="m452.07 142.09c0 3.3181-0.487 6.0164-1.193 6.0164-0.708 0-1.371-2.6539-1.415-5.972-0.045-3.3181 0.442-6.0609 1.194-6.0609 0.751 0 1.326 2.6541 1.414 6.0165z" fill="#484b9b"/>
 <path d="m450.87 146.96c-0.475-1.577-0.698-3.2195-0.664-4.8662-0.115-1.6355 0.034-3.2786 0.442-4.8662 0.474 1.577 0.698 3.2195 0.664 4.8662 0.069 1.6347-0.08 3.2709-0.442 4.8662z" fill="#fff"/>
 <path d="m521.96 161.73-13.263 13.98-17.684-27.915-4.42 0.3092s16.711 38.224 20.203 37.338c7.017-3.401 13.797-7.273 20.292-11.59z" fill="#484b9b"/>
 <path d="m486.5 148.11-2.873-4.1584h7.78l1.327-0.929s-0.708-1.2389-0.487-1.8136c0.169-0.3571 0.393-0.686 0.663-0.9734l1.018 2.7426-1.504 2.0792-1.68 2.8758z" fill="#f3dcb3"/>
 <path d="m486.5 148.11 0.795-0.088-2.519-4.1147-1.15 0.0444z" fill="#ddb9a2"/>
 <path d="m516.52 167.4 1.812 6.857s-9.328 8.848-11.273 7.919-18.922-34.152-18.922-34.152l2.609-0.2212 17.683 27.915z" fill="#6467b8"/>
 <path d="m684.83 439.51 67.684-16.59 64.369 16.59 54.607 82.189z" fill="#4448a5"/>
 <path d="m646.54 422.92 34.572-3.982 39.478 11.812-35.765 8.76z" fill="#333681"/>
 <path d="m342.08 406.16-60.793-14.113-30.678 14.113-126.71 112.73-123.89 133.12h281.28z" fill="url(#paint0_linear)"/>
 <path d="m383.63 367.98 44.298 188.37 179.98-150.19z" fill="url(#paint1_linear)"/>
 <g fill="#4448a5">
  <path d="m607.9 406.16-301.69 245.84h560.34z"/>
  <path d="m607.9 406.16 179.11 245.84h175.28l-73.211-126.07z"/>
  <path d="m752.51 422.92 140.09 229.08h177.4l-107.7-155.66-145.42-56.833z"/>
 </g>
 <path d="m720.59 430.75-39.479-11.812 8.886 19.288z" fill="#4e52ae"/>
 <path d="m281.28 392.04 17.289 54.061 43.504-39.948z" fill="#9093e0"/>
 <path d="m250.6 454.02 133.02-86.044 72.528 284.02h-226.67z" fill="url(#paint2_linear)"/>
 <path d="m688.41 77.944 14.633-5.5298 16.269 15.13-16.534-10.617-14.855 2.035-13.483-9.4672-15.385 1.5926 16.269-5.0875z" fill="#fff"/>
 <path d="m351.27 77.237 5.835-10.971 17.993 0.08848-15.649 2.7871-7.736 9.3786-13.22 1.7697-8.264 9.4229 6.891-11.989z" fill="#fff"/>
 <defs>
  <linearGradient id="paint0_linear" x1="-595.47" x2="868.06" y1="8052.1" y2="9059.9" gradientTransform="translate(0,66)" gradientUnits="userSpaceOnUse">
   <stop stop-color="#4448A5" offset="0"/>
   <stop stop-color="#232780" offset="1"/>
  </linearGradient>
  <linearGradient id="paint1_linear" x1="228.9" x2="523.74" y1="500.43" y2="326.88" gradientTransform="translate(0,66)" gradientUnits="userSpaceOnUse">
   <stop stop-color="#4448A5" offset="0"/>
   <stop stop-color="#5055BD" offset=".52"/>
   <stop stop-color="#AEB1F1" offset="1"/>
  </linearGradient>
  <linearGradient id="paint2_linear" x1="-5632.9" x2="3508.7" y1="16351" y2="24925" gradientTransform="translate(0,66)" gradientUnits="userSpaceOnUse">
   <stop stop-color="#4448A5" offset="0"/>
   <stop stop-color="#2B5185" offset="1"/>
  </linearGradient>
 </defs>
</svg>
