<svg width="375" height="340" viewBox="0 0 375 340" fill="none" xmlns="http://www.w3.org/2000/svg">
<g clip-path="url(#clip0)">
<path d="M188.271 185.526L281.05 132.292L229.811 197.359L188.271 185.526Z" fill="white"/>
<path d="M188.271 185.527L133.594 182.523L186.244 190.66L229.811 197.36L188.271 185.527Z" fill="#AFB1E3"/>
<path d="M188.271 185.526L82.3064 106.701L133.595 182.523L188.271 185.526Z" fill="#AFB2E3"/>
<path d="M194.737 143.585L281.05 132.292L188.271 185.526L194.737 143.585Z" fill="#AFB2E3"/>
<path d="M82.3064 106.701L183.781 144.561L188.271 185.526L82.3064 106.701Z" fill="#AFB2E3"/>
<path d="M157.2 162.426L191.478 139.376L211.928 162.965L188.271 185.526L157.2 162.426Z" fill="white"/>
<path d="M211.927 162.964L217.495 168.765L188.271 185.526L211.927 162.964Z" fill="#AFB1E3"/>
<path d="M174.98 141.275L148.733 156.111L82.306 106.701L174.98 141.275Z" fill="white"/>
<path d="M184.011 47.5621L185.192 50.7962L185.166 53.0038L190.503 51.6691L189.99 49.7182L189.169 44.5332L184.011 47.5621Z" fill="#F3DCB3"/>
<path d="M189.913 40.4012L188.938 46.2536L186.757 48.6148L182.626 49.9495L181.574 50.001L181.061 49.4877L181.138 48.8972L180.497 45.9198L179.522 45.6116L180.06 43.2504L180.137 39.0151L182.6 37.2954L188.759 37.7318L189.913 40.4012Z" fill="#F3DCB3"/>
<path d="M220.189 86.6286L208.874 90.248L200.382 65.7354L206.103 72.8709L216.597 84.1133L220.189 86.6286Z" fill="#484B9B"/>
<path d="M189.759 136.501L188.553 138.015C188.553 138.015 185.089 139.35 185.32 140.582C185.32 141.147 188.194 140.71 189.297 140.582C190.114 140.238 190.896 139.817 191.632 139.324L191.786 139.735L193.967 139.196L192.633 136.039L189.759 136.501Z" fill="#00376A"/>
<path d="M230.145 157.343L229.375 159.114C229.375 159.114 226.347 161.296 226.809 162.4C227.065 162.939 229.632 161.809 230.606 161.322C231.318 160.784 231.971 160.173 232.556 159.499L232.813 159.859L234.814 158.806L232.71 156.06L230.145 157.343Z" fill="#00376A"/>
<path d="M206.898 83.0094L196.712 86.1667L191.658 86.9108L183.139 56.2123L185.192 50.7965L185.808 51.387L186.988 51.1046L189.888 49.1279L190.196 49.4103L194.506 50.3089L206.898 83.0094Z" fill="white"/>
<path d="M198.509 94.6882L209.978 116.942L230.068 157.343L232.941 155.957L215.674 115.197L206.899 83.0093L199.92 85.576L191.658 86.9364C191.658 86.9364 171.902 95.9203 171.132 97.2035C170.362 98.487 189.657 136.604 189.657 136.604L192.633 136.039L179.496 99.8475L198.509 94.6882Z" fill="#484B9B"/>
<path d="M186.732 52.7728L187.065 51.0532L185.526 51.1047L185.783 52.9526L189.041 65.0423L196.097 75.5402L202.999 80.5969L198.971 73.872L189.426 63.9385L186.732 52.7728Z" fill="#B0C2CC"/>
<path d="M186.783 52.7475L187.065 51.0532L185.526 51.1047L185.885 52.9526L189.58 65.2732L197.508 75.4633L203.204 79.7497L200.279 74.1798L191.709 64.1694L186.783 52.7475Z" fill="#F77B8C"/>
<path d="M191.658 86.9108L196.713 86.1666L189.041 65.0421L185.809 52.5932L185.526 51.1045L185.193 50.7964L184.423 52.1825L183.371 56.8539L191.658 86.9108Z" fill="#B0C2CC"/>
<path d="M206.103 72.8706L204.282 64.8622L201.844 50.7195L190.195 49.4102L195.378 59.5235L212.081 82.5475L216.957 84.4469L220.189 86.6283L206.103 72.8706Z" fill="#484B9B"/>
<path d="M185.192 50.7964L180.061 55.5449L189.169 77.4651C189.169 77.4651 187.168 69.1486 185.192 62.0646C183.905 58.419 183.905 54.442 185.192 50.7964Z" fill="#484B9B"/>
<path d="M201.845 50.7197L217.419 61.6026L232.506 74.3853L231.146 76.0792L217.265 66.3512L202.922 62.0133L201.845 50.7197Z" fill="#484B9B"/>
<path d="M185.423 40.6831L186.039 41.8123L186.142 44.867L186.86 44.8928L187.758 42.223L188.861 42.0179L189.554 42.6337L189.272 44.2254L190.709 41.1708L189.965 39.7334L185.423 40.6831Z" fill="#484B9B"/>
<path d="M243.101 95.4324L254.775 79.6212L242.665 70.6631L238.919 75.7198L230.991 86.4747L243.101 95.4324Z" fill="#6467B8"/>
<path d="M237.124 76.2846L234.609 79.6727L234.891 81.1872L235.584 80.2628L234.942 79.8521L237.406 76.5154L237.996 76.9776L238.766 75.9507L237.124 76.2846Z" fill="#00376A"/>
<path d="M230.991 86.4747L242.538 70.8687L246.155 76.7978L245.18 78.1067L245.642 78.4406C245.836 78.5926 245.963 78.8145 245.997 79.0589C246.03 79.3029 245.967 79.5509 245.821 79.7495C245.73 79.8733 245.61 79.9731 245.471 80.0405C245.333 80.1075 245.18 80.1398 245.026 80.1345C244.844 80.1136 244.669 80.0523 244.513 79.9551L244.077 79.6212L239.253 86.1409L239.69 86.4747C239.79 86.5458 239.876 86.6366 239.941 86.7416C240.006 86.8466 240.049 86.9635 240.069 87.0857C240.088 87.2079 240.082 87.3325 240.052 87.4522C240.023 87.572 239.969 87.6848 239.895 87.7837C239.801 87.9026 239.679 87.9978 239.541 88.0603C239.402 88.1228 239.251 88.151 239.099 88.1429C238.915 88.1343 238.736 88.0718 238.586 87.9635L238.15 87.6296L237.226 88.8617L230.991 86.4747Z" fill="#484B9B"/>
<path d="M242.665 70.6631L245.539 76.1047L236.867 87.8351L230.991 86.4747L242.665 70.6631Z" fill="#6467B8"/>
<path d="M245.334 78.9024C245.425 78.7766 245.463 78.6192 245.439 78.4656C245.415 78.3115 245.331 78.1734 245.206 78.0814L243.744 77.0034L243.051 77.9531L244.513 79.0312C244.641 79.1162 244.797 79.1501 244.949 79.1264C245.101 79.1027 245.238 79.0226 245.334 78.9024Z" fill="white"/>
<path d="M239.407 86.9111C239.508 86.7984 239.563 86.6521 239.563 86.5005C239.563 86.3493 239.508 86.203 239.407 86.0898L237.944 85.0117L237.251 85.9614L238.714 87.0395C238.827 87.1 238.957 87.12 239.083 87.0967C239.209 87.0734 239.323 87.008 239.407 86.9111Z" fill="white"/>
<path d="M254.775 79.6212L254.057 79.1079L242.998 93.8411L234.891 87.9634L230.991 86.4747L243.101 95.4324L254.775 79.6212Z" fill="#484B9B"/>
<path d="M183.448 38.5531L180.138 39.0151L180.112 40.6322L179.188 38.3221L179.933 36.859L183.756 35.9863L189.862 37.2954L191.171 40.9914L190.221 42.2235L190.709 41.1712L189.965 39.7338L184.628 39.4771L183.448 38.5531Z" fill="#484B9B"/>
<path d="M231.119 76.028L231.581 76.3615L232.094 77.1318L233.454 78.6974L235.456 79.0055L234.48 78.3639L233.967 78.1069L233.557 77.7219C233.557 77.7219 235.737 79.2364 235.84 79.2106C235.978 79.0917 236.068 78.9282 236.097 78.7488C236.31 78.6124 236.466 78.4023 236.533 78.1583C236.533 78.1583 236.867 77.7477 236.815 77.5936C236.764 77.4395 237.277 77.1829 237.2 77.0803C237.123 76.9777 233.762 74.847 233.762 74.847L232.941 74.6419L232.505 74.3853L231.119 76.028Z" fill="#F3DCB3"/>
<path d="M206.899 83.0093L196.713 86.1665L212.466 116.223L231.274 156.753L232.941 155.957L215.674 115.197L206.899 83.0093Z" fill="#6467B8"/>
<path d="M179.496 99.7194L175.878 97.8458L187.296 94.7142L184.217 90.8896L173.903 97.3067L191.325 136.168L192.633 135.911L179.496 99.7194Z" fill="#6467B8"/>
<path d="M231.12 76.0279L231.402 75.7197L231.735 76.1304L233.455 78.4405L235.045 78.7229L235.456 79.0053L233.48 78.6972L232.095 77.1316L231.582 76.3613L231.12 76.0279Z" fill="#DDB9A2"/>
<path d="M235.841 79.2106L233.07 77.2344L233.557 77.7219C233.557 77.7219 235.635 79.2364 235.841 79.2106Z" fill="#DDB9A2"/>
<path d="M183.756 35.9863L189.862 37.2954L191.171 40.9914L190.221 42.2235L190.709 41.1712L189.965 39.7338L184.628 39.4771L183.756 35.9863Z" fill="#6467B8"/>
<path d="M212.082 82.5475L199.869 65.6836L195.379 59.5235L190.196 49.4102L202.076 50.8731L217.419 61.6023L232.506 74.385L231.556 75.5141L216.059 63.3734L202.204 57.3417L202.05 63.1936L206.104 72.8706L220.19 86.6283L216.957 84.4469L212.082 82.5475Z" fill="#6467B8"/>
<path d="M186.809 48.6147L185.526 51.1047L185.192 50.7966L184.602 49.231L186.809 48.6147Z" fill="#DDB9A2"/>
<path d="M180.343 42.1974L180.394 39.0917L183.447 38.5527L180.137 39.0148L180.06 43.2501L180.368 42.7879L181.651 43.1218L183.191 42.942L182.575 42.018L181.01 41.6073L180.343 42.1974Z" fill="#DDB9A2"/>
<path d="M180.497 45.9196L179.522 45.6372L180.907 45.7398L180.497 45.9196Z" fill="#DDB9A2"/>
<path d="M163.81 42.7514L176.098 42.4854L176.128 43.8968L163.841 44.1629L163.81 42.7514Z" fill="#484B9B"/>
<path d="M176.212 43.2502C176.212 43.9175 176.212 44.4823 175.93 44.4823C175.648 44.4823 175.622 43.9432 175.596 43.2502C175.57 42.5571 175.596 42.0181 175.879 42.0181C176.161 42.0181 176.187 42.5571 176.212 43.2502Z" fill="#204B86"/>
<path d="M175.878 42.0181H176.622C176.918 42.8039 176.918 43.6703 176.622 44.4565H175.981C176.123 43.6457 176.088 42.8137 175.878 42.0181Z" fill="#6467B8"/>
<path d="M167.924 43.8919L175.93 43.6353C175.956 43.4996 175.956 43.3603 175.93 43.2246L167.95 43.3787L167.924 43.8919Z" fill="#6467B8"/>
<path d="M155.557 42.1468L167.847 41.8901C167.988 42.9204 167.988 43.9653 167.847 44.9959L155.583 45.2525L155.557 42.1468Z" fill="#484B9B"/>
<path d="M167.924 44.816C167.924 44.4825 167.924 44.0718 167.924 43.6611L155.531 43.8405V45.0726L167.924 44.816Z" fill="#6467B8"/>
<path d="M140.47 41.5815L155.531 41.248C155.943 42.9342 155.943 44.695 155.531 46.3816L140.47 46.715V41.5815Z" fill="#484B9B"/>
<path d="M155.711 46.2018C155.793 45.6918 155.844 45.1777 155.865 44.6616L140.471 44.8929V46.51L155.711 46.2018Z" fill="#6467B8"/>
<path d="M138.572 40.6577H140.445C141.323 42.8788 141.414 45.334 140.702 47.6135H138.829L138.572 40.6577Z" fill="#6467B8"/>
<path d="M140.702 47.4339C140.916 46.8463 141.054 46.2341 141.112 45.6113H138.752V47.5108L140.702 47.4339Z" fill="#484B9B"/>
<path d="M139.367 44.1485C139.367 46.0737 139.085 47.6392 138.675 47.6392C138.264 47.6392 137.879 46.0994 137.853 44.1743C137.828 42.2491 138.11 40.6577 138.546 40.6577C138.982 40.6577 139.316 42.1976 139.367 44.1485Z" fill="#484B9B"/>
<path d="M138.674 46.972C138.399 46.057 138.269 45.104 138.289 44.1486C138.222 43.1997 138.309 42.2463 138.546 41.3252C138.821 42.2402 138.951 43.1931 138.931 44.1486C138.971 45.0971 138.885 46.0464 138.674 46.972Z" fill="white"/>
<path d="M179.933 55.5452L172.235 63.6561L161.972 47.46L159.407 47.6394C159.407 47.6394 169.105 69.8166 171.132 69.3029C175.205 67.3295 179.139 65.0828 182.909 62.5781L179.933 55.5452Z" fill="#484B9B"/>
<path d="M159.354 47.6391L157.687 45.2264H162.202L162.972 44.6874C162.972 44.6874 162.562 43.9685 162.69 43.6351C162.788 43.4279 162.918 43.237 163.075 43.0703L163.665 44.6616L162.792 45.868L161.818 47.5365L159.354 47.6391Z" fill="#F3DCB3"/>
<path d="M159.355 47.6391L159.816 47.588L158.354 45.2007L157.687 45.2264L159.355 47.6391Z" fill="#DDB9A2"/>
<path d="M176.776 58.8308L177.828 62.809C177.828 62.809 172.414 67.9425 171.285 67.4035C170.156 66.8645 160.304 47.5883 160.304 47.5883L161.818 47.46L172.081 63.6561L176.776 58.8308Z" fill="#6467B8"/>
<path d="M274.455 216.713L313.737 207.087L351.095 216.713L382.788 264.399L274.455 216.713Z" fill="#4448A5"/>
<path d="M252.236 207.087L272.3 204.777L295.213 211.63L274.456 216.713L252.236 207.087Z" fill="#333681"/>
<path d="M75.5322 197.36L40.2496 189.171L22.4449 197.36L-51.0946 262.765L-123 340H40.2496L75.5322 197.36Z" fill="url(#paint0_linear)"/>
<path d="M99.6485 175.208L125.358 284.502L229.811 197.36L99.6485 175.208Z" fill="url(#paint1_linear)"/>
<path d="M229.811 197.359L54.7209 340H379.929L229.811 197.359Z" fill="#4448A5"/>
<path d="M229.811 197.359L333.762 340H435.491L393.002 266.851L229.811 197.359Z" fill="#4448A5"/>
<path d="M313.738 207.087L395.045 340H498L435.491 249.688L351.096 216.713L313.738 207.087Z" fill="#4448A5"/>
<path d="M295.213 211.63L272.3 204.777L277.458 215.968L295.213 211.63Z" fill="#4E52AE"/>
<path d="M40.2496 189.171L50.2837 220.538L75.5322 197.36L40.2496 189.171Z" fill="#9093E0"/>
<path d="M22.4448 225.132L99.649 175.208L141.742 340H10.1882L22.4448 225.132Z" fill="url(#paint2_linear)"/>
<path d="M276.534 6.93028L285.027 3.72182L294.469 12.5002L284.873 6.33994L276.252 7.52066L268.426 2.02775L259.497 2.95179L268.94 0L276.534 6.93028Z" fill="white"/>
<path d="M80.8678 6.5194L84.2547 0.153809L94.6973 0.205144L85.6152 1.82221L81.1252 7.26376L73.4526 8.2905L68.6562 13.7577L72.6559 6.80173L80.8678 6.5194Z" fill="white"/>
</g>
<defs>
<linearGradient id="paint0_linear" x1="-468.594" y1="4671.85" x2="380.643" y2="5256.85" gradientUnits="userSpaceOnUse">
<stop stop-color="#4448A5"/>
<stop offset="1" stop-color="#232780"/>
</linearGradient>
<linearGradient id="paint1_linear" x1="9.84456" y1="290.354" x2="180.941" y2="189.615" gradientUnits="userSpaceOnUse">
<stop stop-color="#4448A5"/>
<stop offset="0.52" stop-color="#5055BD"/>
<stop offset="1" stop-color="#AEB1F1"/>
</linearGradient>
<linearGradient id="paint2_linear" x1="-3392.21" y1="9486.98" x2="1911.94" y2="14463" gradientUnits="userSpaceOnUse">
<stop stop-color="#4448A5"/>
<stop offset="1" stop-color="#2B5185"/>
</linearGradient>
<clipPath id="clip0">
<rect width="621" height="340" fill="white" transform="matrix(-1 0 0 1 498 0)"/>
</clipPath>
</defs>
</svg>
