<svg width="27" height="29" viewBox="0 0 27 29" fill="none" xmlns="http://www.w3.org/2000/svg">
<path d="M0.0678057 28.6651C0.0678057 27.4487 0.0678057 26.3868 0.0678057 25.195C0.711818 25.1578 1.33961 25.1214 2.05191 25.0802C2.07428 24.6548 2.11071 24.2824 2.11092 23.9099C2.11446 17.6881 2.09598 11.4662 2.12973 5.2446C2.13575 4.13517 1.82662 3.48476 0.634496 3.38563C0.411617 3.3671 0.0599064 2.99478 0.0410043 2.76333C-0.0298504 1.89582 0.0126301 1.01902 0.0126301 0.000743376C0.551866 0.000743376 0.961042 0.00073985 1.37022 0.00073985C5.81806 0.000736323 10.2659 -0.00121182 14.7138 0.00122865C20.1389 0.00420363 23.1419 4.94908 20.6451 9.76251C20.5606 9.92529 20.4939 10.0973 20.3804 10.3513C20.7632 10.5414 21.0952 10.706 21.427 10.871C25.0845 12.6897 27.1881 16.7227 26.5549 20.7021C25.9026 24.8009 22.738 27.9092 18.5922 28.4921C17.8374 28.5982 17.0695 28.6558 16.3074 28.6578C10.9433 28.6717 5.57926 28.6651 0.0678057 28.6651ZM11.4762 25.1331C13.5133 25.1331 15.4245 25.1432 17.3356 25.1308C20.3749 25.1111 22.6407 23.0532 23.1667 19.8533C23.5751 17.3693 21.7687 14.6136 19.1689 13.6847C18.1338 13.3149 17.2364 13.2846 16.5456 14.3015C16.2894 14.6787 15.9985 15.0321 15.6782 15.4562C14.6913 14.5215 13.8998 13.7719 13.0595 12.976C14.5446 11.3903 15.9416 9.91977 17.3134 8.42583C18.102 7.5669 18.3495 6.54959 17.9257 5.44537C17.4932 4.3188 16.665 3.60641 15.4445 3.49522C14.5316 3.41204 13.6055 3.47971 12.6909 3.40829C11.7055 3.33135 11.3741 3.67728 11.3814 4.70777C11.427 11.119 11.4036 17.5307 11.4071 23.9423C11.4073 24.2803 11.4452 24.6183 11.4762 25.1331ZM7.99245 25.065C7.99245 23.1711 7.99251 21.341 7.99244 19.511C7.99227 14.6057 7.96135 9.70005 8.0146 4.79532C8.02708 3.64568 7.60191 3.26518 6.5398 3.42461C6.28047 3.46353 6.02276 3.51328 5.72022 3.56568C5.72022 10.7469 5.72022 17.8871 5.72022 25.065C6.47159 25.065 7.14113 25.065 7.99245 25.065Z" fill="#D1B36C"/>
</svg>
