<svg width="23" height="23" viewBox="0 0 23 23" fill="none" xmlns="http://www.w3.org/2000/svg">
<path d="M21.8439 17.41L21.844 17.41C22.3313 17.8973 22.382 18.8099 21.8247 19.4636L19.6659 21.6225L20.1962 22.1528L19.6659 21.6225C19.2717 22.0167 18.6759 22.2485 17.8359 22.25C16.9897 22.2516 15.9474 22.0164 14.7637 21.5306C12.399 20.5601 9.6137 18.6485 6.97064 16.0055C4.33002 13.3648 2.44676 10.5807 1.48988 8.21584C1.01095 7.03219 0.777568 5.98683 0.774446 5.13602C0.771352 4.29296 0.991938 3.69521 1.36103 3.30277L3.53165 1.13215C4.01894 0.644869 4.93159 0.594152 5.5853 1.15137L8.7758 4.34187C9.54753 5.1136 9.19968 6.36631 8.28313 6.64832L8.27481 6.65088L8.26655 6.65364C6.91876 7.10284 5.93495 8.61344 6.40592 10.0915C6.74608 11.4789 7.76492 12.932 8.9368 14.089C10.1178 15.2551 11.579 16.2436 12.9071 16.5756L12.9167 16.578L12.9263 16.5801C14.2974 16.8849 15.8458 16.1397 16.3224 14.7096L16.3252 14.7013L16.3278 14.693C16.6098 13.7764 17.8625 13.4286 18.6342 14.2003L21.8439 17.41Z" stroke="#404159" stroke-width="1.5"/>
</svg>
