<svg width="18" height="20" viewBox="0 0 18 20" fill="none" xmlns="http://www.w3.org/2000/svg">
<path d="M17.0137 2.37824L9.16875 0.0247266C9.0589 -0.00824219 8.94184 -0.00824219 8.83195 0.0247266L0.986875 2.37824C0.739062 2.45258 0.569336 2.6807 0.569336 2.93945V11.569C0.569336 12.6914 1.02375 13.8404 1.91988 14.984C2.6043 15.8575 3.55121 16.7345 4.73422 17.5909C6.7216 19.0295 8.67859 19.912 8.76094 19.9488C8.83707 19.9829 8.91871 20 9.00035 20C9.08199 20 9.16363 19.983 9.23977 19.9488C9.32207 19.912 11.279 19.0295 13.2664 17.5909C14.4494 16.7345 15.3963 15.8575 16.0807 14.984C16.9769 13.8404 17.4312 12.6914 17.4312 11.569V2.93945C17.4312 2.6807 17.2616 2.45258 17.0137 2.37824Z" fill="#E5C67A"/>
</svg>
