<svg width="20" height="19" viewBox="0 0 20 19" fill="none" xmlns="http://www.w3.org/2000/svg">
<g clip-path="url(#clip0)">
<path d="M10.0556 18.9999C15.3023 18.9999 19.5556 14.7466 19.5556 9.49996C19.5556 4.25328 15.3023 0 10.0556 0C4.80894 0 0.555664 4.25328 0.555664 9.49996C0.555664 14.7466 4.80894 18.9999 10.0556 18.9999Z" fill="#00C2FF"/>
<path d="M4.90279 9.29407L14.0623 5.76246C14.4875 5.60888 14.8588 5.86617 14.721 6.509L14.7218 6.50821L13.1622 13.8556C13.0466 14.3766 12.7371 14.5032 12.3041 14.2578L9.92907 12.5074L8.78353 13.611C8.65686 13.7377 8.54999 13.8446 8.30457 13.8446L8.4732 11.4276L12.8749 7.45108C13.0664 7.28246 12.8321 7.18746 12.5796 7.35529L7.14003 10.78L4.79512 10.0485C4.28608 9.88703 4.275 9.53949 4.90279 9.29407Z" fill="white"/>
</g>
<defs>
<clipPath id="clip0">
<rect width="18.9999" height="18.9999" fill="white" transform="translate(0.555664)"/>
</clipPath>
</defs>
</svg>
